mtllib ./stair_1.mtl
g stair_1
v 0 0 0
v -13.66795 0 0
v -13.66795 6.636551 0
v -13.59268 6.636551 0
v -13.59268 6.6 0
v -12.91304 6.6 0
v -12.91304 6.27 0
v -12.23341 6.27 0
v -12.23341 5.94 0
v -11.55377 5.94 0
v -11.55377 5.61 0
v -10.87414 5.61 0
v -10.87414 5.28 0
v -10.19451 5.28 0
v -10.19451 4.95 0
v -9.514874 4.95 0
v -9.514874 4.62 0
v -8.835239 4.62 0
v -8.835239 4.29 0
v -8.155605 4.29 0
v -8.155605 3.96 0
v -7.475972 3.96 0
v -7.475972 3.63 0
v -6.796338 3.63 0
v -6.796338 3.3 0
v -6.116704 3.3 0
v -6.116704 2.97 0
v -5.43707 2.97 0
v -5.43707 2.64 0
v -4.757437 2.64 0
v -4.757437 2.31 0
v -4.077803 2.31 0
v -4.077803 1.98 0
v -3.398169 1.98 0
v -3.398169 1.65 0
v -2.718535 1.65 0
v -2.718535 1.32 0
v -2.038901 1.32 0
v -2.038901 0.99 0
v -1.359268 0.99 0
v -1.359268 0.66 0
v -0.6796338 0.66 0
v -0.6796338 0.33 0
v 0 0.33 0
v 0 0 -3.365942
v 0 0.33 -3.365942
v -0.6796338 0.33 -3.365942
v -0.6796338 0.66 -3.365942
v -1.359268 0.66 -3.365942
v -1.359268 0.99 -3.365942
v -2.038901 0.99 -3.365942
v -2.038901 1.32 -3.365942
v -2.718535 1.32 -3.365942
v -2.718535 1.65 -3.365942
v -3.398169 1.65 -3.365942
v -3.398169 1.98 -3.365942
v -4.077803 1.98 -3.365942
v -4.077803 2.31 -3.365942
v -4.757437 2.31 -3.365942
v -4.757437 2.64 -3.365942
v -5.43707 2.64 -3.365942
v -5.43707 2.97 -3.365942
v -6.116704 2.97 -3.365942
v -6.116704 3.3 -3.365942
v -6.796338 3.3 -3.365942
v -6.796338 3.63 -3.365942
v -7.475972 3.63 -3.365942
v -7.475972 3.96 -3.365942
v -8.155605 3.96 -3.365942
v -8.155605 4.29 -3.365942
v -8.835239 4.29 -3.365942
v -8.835239 4.62 -3.365942
v -9.514874 4.62 -3.365942
v -9.514874 4.95 -3.365942
v -10.19451 4.95 -3.365942
v -10.19451 5.28 -3.365942
v -10.87414 5.28 -3.365942
v -10.87414 5.61 -3.365942
v -11.55377 5.61 -3.365942
v -11.55377 5.94 -3.365942
v -12.23341 5.94 -3.365942
v -12.23341 6.27 -3.365942
v -12.91304 6.27 -3.365942
v -12.91304 6.6 -3.365942
v -13.59268 6.6 -3.365942
v -13.59268 6.636551 -3.365942
v -13.66795 6.636551 -3.365942
v -13.66795 0 -3.365942

vn 0 0 1
vn 0 0 -1
vn -1 0 0
vn 1 0 0
vn 0 1 0
vn 0 -1 0

vt 0 0
vt 13.66795 0
vt 13.66795 6.636551
vt 13.59268 6.636551
vt 13.59268 6.6
vt 12.91304 6.6
vt 12.91304 6.27
vt 12.23341 6.27
vt 12.23341 5.94
vt 11.55377 5.94
vt 11.55377 5.61
vt 10.87414 5.61
vt 10.87414 5.28
vt 10.19451 5.28
vt 10.19451 4.95
vt 9.514874 4.95
vt 9.514874 4.62
vt 8.835239 4.62
vt 8.835239 4.29
vt 8.155605 4.29
vt 8.155605 3.96
vt 7.475972 3.96
vt 7.475972 3.63
vt 6.796338 3.63
vt 6.796338 3.3
vt 6.116704 3.3
vt 6.116704 2.97
vt 5.43707 2.97
vt 5.43707 2.64
vt 4.757437 2.64
vt 4.757437 2.31
vt 4.077803 2.31
vt 4.077803 1.98
vt 3.398169 1.98
vt 3.398169 1.65
vt 2.718535 1.65
vt 2.718535 1.32
vt 2.038901 1.32
vt 2.038901 0.99
vt 1.359268 0.99
vt 1.359268 0.66
vt 0.6796338 0.66
vt 0.6796338 0.33
vt 0 0.33
vt -3.365942 0
vt -3.365942 6.636551
vt 0 6.636551
vt 3.365942 0.33
vt 3.365942 0
vt 13.59268 0
vt 13.66795 -3.365942
vt 13.59268 -3.365942
vt 0.6796338 0
vt 0.6796338 -3.365942
vt 0 -3.365942
vt 0 0.66
vt 3.365942 0.66
vt 1.359268 0
vt 1.359268 -3.365942
vt 0 0.99
vt 3.365942 0.99
vt 2.038901 0
vt 2.038901 -3.365942
vt 0 1.32
vt 3.365942 1.32
vt 2.718535 0
vt 2.718535 -3.365942
vt 0 1.65
vt 3.365942 1.65
vt 3.398169 0
vt 3.398169 -3.365942
vt 0 1.98
vt 3.365942 1.98
vt 4.077803 0
vt 4.077803 -3.365942
vt 0 2.31
vt 3.365942 2.31
vt 4.757437 0
vt 4.757437 -3.365942
vt 0 2.64
vt 3.365942 2.64
vt 5.43707 0
vt 5.43707 -3.365942
vt 0 2.97
vt 3.365942 2.97
vt 6.116704 0
vt 6.116704 -3.365942
vt 0 3.3
vt 3.365942 3.3
vt 6.796338 0
vt 6.796338 -3.365942
vt 0 3.63
vt 3.365942 3.63
vt 7.475972 0
vt 7.475972 -3.365942
vt 0 3.96
vt 3.365942 3.96
vt 8.155605 0
vt 8.155605 -3.365942
vt 0 4.29
vt 3.365942 4.29
vt 8.835239 0
vt 8.835239 -3.365942
vt 0 4.62
vt 3.365942 4.62
vt 9.514874 0
vt 9.514874 -3.365942
vt 0 4.95
vt 3.365942 4.95
vt 10.19451 0
vt 10.19451 -3.365942
vt 0 5.28
vt 3.365942 5.28
vt 10.87414 0
vt 10.87414 -3.365942
vt 0 5.61
vt 3.365942 5.61
vt 11.55377 0
vt 11.55377 -3.365942
vt 0 5.94
vt 3.365942 5.94
vt 12.23341 0
vt 12.23341 -3.365942
vt 0 6.27
vt 3.365942 6.27
vt 12.91304 0
vt 12.91304 -3.365942
vt 0 6.6
vt 3.365942 6.6
vt 3.365942 6.636551
vt 0 3.365942
vt -13.66795 3.365942
vt -13.66795 0

usemtl UModeler_Grid
usemap UModeler_Grid
f 1/1/1 44/44/1 43/43/1
f 43/43/1 42/42/1 41/41/1
f 41/41/1 40/40/1 39/39/1
f 39/39/1 38/38/1 37/37/1
f 37/37/1 36/36/1 35/35/1
f 35/35/1 34/34/1 33/33/1
f 33/33/1 32/32/1 31/31/1
f 31/31/1 30/30/1 2/2/1
f 33/33/1 31/31/1 2/2/1
f 35/35/1 33/33/1 2/2/1
f 37/37/1 35/35/1 2/2/1
f 39/39/1 37/37/1 2/2/1
f 41/41/1 39/39/1 2/2/1
f 43/43/1 41/41/1 2/2/1
f 1/1/1 43/43/1 2/2/1
f 2/2/1 30/30/1 29/29/1
f 2/2/1 29/29/1 28/28/1
f 2/2/1 28/28/1 27/27/1
f 2/2/1 27/27/1 26/26/1
f 2/2/1 26/26/1 25/25/1
f 2/2/1 25/25/1 24/24/1
f 2/2/1 24/24/1 23/23/1
f 2/2/1 23/23/1 22/22/1
f 2/2/1 22/22/1 21/21/1
f 2/2/1 21/21/1 20/20/1
f 2/2/1 20/20/1 19/19/1
f 2/2/1 19/19/1 18/18/1
f 2/2/1 18/18/1 17/17/1
f 2/2/1 17/17/1 16/16/1
f 2/2/1 16/16/1 15/15/1
f 2/2/1 15/15/1 14/14/1
f 2/2/1 14/14/1 13/13/1
f 2/2/1 13/13/1 12/12/1
f 2/2/1 12/12/1 11/11/1
f 2/2/1 11/11/1 10/10/1
f 2/2/1 10/10/1 9/9/1
f 2/2/1 9/9/1 8/8/1
f 2/2/1 8/8/1 7/7/1
f 2/2/1 7/7/1 6/6/1
f 2/2/1 6/6/1 5/5/1
f 2/2/1 5/5/1 4/4/1
f 2/2/1 4/4/1 3/3/1
f 45/1/2 88/2/2 47/43/2
f 47/43/2 88/2/2 49/41/2
f 49/41/2 88/2/2 51/39/2
f 51/39/2 88/2/2 53/37/2
f 53/37/2 88/2/2 55/35/2
f 55/35/2 88/2/2 57/33/2
f 57/33/2 88/2/2 59/31/2
f 59/31/2 88/2/2 61/29/2
f 61/29/2 88/2/2 63/27/2
f 63/27/2 88/2/2 65/25/2
f 65/25/2 88/2/2 67/23/2
f 67/23/2 88/2/2 69/21/2
f 69/21/2 88/2/2 71/19/2
f 71/19/2 88/2/2 73/17/2
f 73/17/2 88/2/2 75/15/2
f 75/15/2 88/2/2 77/13/2
f 77/13/2 88/2/2 79/11/2
f 79/11/2 88/2/2 81/9/2
f 81/9/2 88/2/2 83/7/2
f 83/7/2 88/2/2 85/5/2
f 85/5/2 88/2/2 87/3/2
f 85/5/2 87/3/2 86/4/2
f 46/44/2 45/1/2 47/43/2
f 48/42/2 47/43/2 49/41/2
f 50/40/2 49/41/2 51/39/2
f 52/38/2 51/39/2 53/37/2
f 54/36/2 53/37/2 55/35/2
f 56/34/2 55/35/2 57/33/2
f 58/32/2 57/33/2 59/31/2
f 60/30/2 59/31/2 61/29/2
f 62/28/2 61/29/2 63/27/2
f 64/26/2 63/27/2 65/25/2
f 66/24/2 65/25/2 67/23/2
f 68/22/2 67/23/2 69/21/2
f 70/20/2 69/21/2 71/19/2
f 72/18/2 71/19/2 73/17/2
f 74/16/2 73/17/2 75/15/2
f 76/14/2 75/15/2 77/13/2
f 78/12/2 77/13/2 79/11/2
f 80/10/2 79/11/2 81/9/2
f 82/8/2 81/9/2 83/7/2
f 84/6/2 83/7/2 85/5/2
f 87/46/3 88/45/3 2/1/3
f 3/47/3 87/46/3 2/1/3
f 46/48/4 44/44/4 1/1/4
f 45/49/4 46/48/4 1/1/4
f 87/51/5 3/2/5 4/50/5
f 86/52/5 87/51/5 4/50/5
f 48/57/4 42/56/4 43/44/4
f 47/48/4 48/57/4 43/44/4
f 50/61/4 40/60/4 41/56/4
f 49/57/4 50/61/4 41/56/4
f 52/65/4 38/64/4 39/60/4
f 51/61/4 52/65/4 39/60/4
f 54/69/4 36/68/4 37/64/4
f 53/65/4 54/69/4 37/64/4
f 56/73/4 34/72/4 35/68/4
f 55/69/4 56/73/4 35/68/4
f 58/77/4 32/76/4 33/72/4
f 57/73/4 58/77/4 33/72/4
f 60/81/4 30/80/4 31/76/4
f 59/77/4 60/81/4 31/76/4
f 62/85/4 28/84/4 29/80/4
f 61/81/4 62/85/4 29/80/4
f 64/89/4 26/88/4 27/84/4
f 63/85/4 64/89/4 27/84/4
f 66/93/4 24/92/4 25/88/4
f 65/89/4 66/93/4 25/88/4
f 68/97/4 22/96/4 23/92/4
f 67/93/4 68/97/4 23/92/4
f 70/101/4 20/100/4 21/96/4
f 69/97/4 70/101/4 21/96/4
f 72/105/4 18/104/4 19/100/4
f 71/101/4 72/105/4 19/100/4
f 74/109/4 16/108/4 17/104/4
f 73/105/4 74/109/4 17/104/4
f 76/113/4 14/112/4 15/108/4
f 75/109/4 76/113/4 15/108/4
f 78/117/4 12/116/4 13/112/4
f 77/113/4 78/117/4 13/112/4
f 80/121/4 10/120/4 11/116/4
f 79/117/4 80/121/4 11/116/4
f 82/125/4 8/124/4 9/120/4
f 81/121/4 82/125/4 9/120/4
f 84/129/4 6/128/4 7/124/4
f 83/125/4 84/129/4 7/124/4
f 86/130/4 4/47/4 5/128/4
f 85/129/4 86/130/4 5/128/4
f 88/132/6 45/131/6 1/1/6
f 2/133/6 88/132/6 1/1/6

usemtl UModeler_Grid
usemap UModeler_Grid
f 47/54/5 43/53/5 44/1/5
f 46/55/5 47/54/5 44/1/5
f 49/59/5 41/58/5 42/53/5
f 48/54/5 49/59/5 42/53/5
f 51/63/5 39/62/5 40/58/5
f 50/59/5 51/63/5 40/58/5
f 53/67/5 37/66/5 38/62/5
f 52/63/5 53/67/5 38/62/5
f 55/71/5 35/70/5 36/66/5
f 54/67/5 55/71/5 36/66/5
f 57/75/5 33/74/5 34/70/5
f 56/71/5 57/75/5 34/70/5
f 59/79/5 31/78/5 32/74/5
f 58/75/5 59/79/5 32/74/5
f 61/83/5 29/82/5 30/78/5
f 60/79/5 61/83/5 30/78/5
f 63/87/5 27/86/5 28/82/5
f 62/83/5 63/87/5 28/82/5
f 65/91/5 25/90/5 26/86/5
f 64/87/5 65/91/5 26/86/5
f 67/95/5 23/94/5 24/90/5
f 66/91/5 67/95/5 24/90/5
f 69/99/5 21/98/5 22/94/5
f 68/95/5 69/99/5 22/94/5
f 71/103/5 19/102/5 20/98/5
f 70/99/5 71/103/5 20/98/5
f 73/107/5 17/106/5 18/102/5
f 72/103/5 73/107/5 18/102/5
f 75/111/5 15/110/5 16/106/5
f 74/107/5 75/111/5 16/106/5
f 77/115/5 13/114/5 14/110/5
f 76/111/5 77/115/5 14/110/5
f 79/119/5 11/118/5 12/114/5
f 78/115/5 79/119/5 12/114/5
f 81/123/5 9/122/5 10/118/5
f 80/119/5 81/123/5 10/118/5
f 83/127/5 7/126/5 8/122/5
f 82/123/5 83/127/5 8/122/5
f 85/52/5 5/50/5 6/126/5
f 84/127/5 85/52/5 6/126/5
